<?xml version="1.0" encoding="UTF-8" standalone="no"?>
<!-- Created with Inkscape (http://www.inkscape.org/) -->

<svg
   xmlns:dc="http://purl.org/dc/elements/1.1/"
   xmlns:cc="http://creativecommons.org/ns#"
   xmlns:rdf="http://www.w3.org/1999/02/22-rdf-syntax-ns#"
   xmlns:svg="http://www.w3.org/2000/svg"
   xmlns="http://www.w3.org/2000/svg"
   xmlns:sodipodi="http://sodipodi.sourceforge.net/DTD/sodipodi-0.dtd"
   xmlns:inkscape="http://www.inkscape.org/namespaces/inkscape"
   id="svg2"
   version="1.1"
   inkscape:version="0.91 r13725"
   xml:space="preserve"
   width="405.76788"
   height="404.27151"
   viewBox="0 0 405.76789 404.27152"
   sodipodi:docname="issuu.svg"><metadata
     id="metadata8"><rdf:RDF><cc:Work
         rdf:about=""><dc:format>image/svg+xml</dc:format><dc:type
           rdf:resource="http://purl.org/dc/dcmitype/StillImage" /><dc:title></dc:title></cc:Work></rdf:RDF></metadata><defs
     id="defs6"><clipPath
       clipPathUnits="userSpaceOnUse"
       id="clipPath16"><path
         d="m 221.17,339.97 c -0.291,-30.754 24.41,-55.925 55.166,-56.215 l 0,0 c 30.756,-0.29 55.928,24.41 56.219,55.162 l 0,0 c 0.288,30.757 -24.41,55.928 -55.167,56.218 l 0,0 c -0.178,0.002 -0.359,0.003 -0.537,0.003 l 0,0 c -30.513,0.001 -55.392,-24.591 -55.681,-55.168 m 55.426,-28.724 c -15.574,0.147 -28.082,12.893 -27.934,28.464 l 0,0 c 0.147,15.574 12.892,28.081 28.466,27.934 l 0,0 c 15.574,-0.147 28.082,-12.892 27.934,-28.466 l 0,0 c -0.147,-15.48 -12.747,-27.932 -28.195,-27.933 l 0,0 c -0.091,0 -0.18,0 -0.271,10e-4"
         id="path18"
         inkscape:connector-curvature="0" /></clipPath><linearGradient
       x1="0"
       y1="0"
       x2="1"
       y2="0"
       gradientUnits="userSpaceOnUse"
       gradientTransform="matrix(74.801193,-74.801193,-74.801193,-74.801193,239.41504,376.8916)"
       spreadMethod="pad"
       id="linearGradient24"><stop
         style="stop-opacity:1;stop-color:#f59c00"
         offset="0"
         id="stop26" /><stop
         style="stop-opacity:1;stop-color:#ec6513"
         offset="0.506409"
         id="stop28" /><stop
         style="stop-opacity:1;stop-color:#e02c14"
         offset="1"
         id="stop30" /></linearGradient><clipPath
       clipPathUnits="userSpaceOnUse"
       id="clipPath38"><path
         d="m 166.588,448.534 0,-109.489 c 0,-60.466 49.016,-109.483 109.482,-109.483 l 0,0 c 60.466,0 109.484,49.017 109.484,109.483 l 0,0 c 0,60.466 -49.018,109.484 -109.484,109.484 l 0,0 c -0.174,0 -0.347,-0.007 -0.521,-0.007 l 0,0 0,0.012 -108.961,0 z m 109.561,-184.7 c -41.979,0.397 -75.691,34.752 -75.295,76.725 l 0,0 c 0.396,41.978 34.752,75.69 76.729,75.294 l 0,0 c 41.978,-0.397 75.69,-34.752 75.295,-76.729 l 0,0 c -0.394,-41.727 -34.355,-75.291 -75.997,-75.293 l 0,0 c -0.246,0 -0.486,10e-4 -0.732,0.003"
         id="path40"
         inkscape:connector-curvature="0" /></clipPath><linearGradient
       x1="0"
       y1="0"
       x2="1"
       y2="0"
       gradientUnits="userSpaceOnUse"
       gradientTransform="matrix(177.50633,-177.50633,-177.50633,-177.50633,171.17285,443.94238)"
       spreadMethod="pad"
       id="linearGradient46"><stop
         style="stop-opacity:1;stop-color:#f59c00"
         offset="0"
         id="stop48" /><stop
         style="stop-opacity:1;stop-color:#ec6513"
         offset="0.506409"
         id="stop50" /><stop
         style="stop-opacity:1;stop-color:#e02c14"
         offset="1"
         id="stop52" /></linearGradient><clipPath
       clipPathUnits="userSpaceOnUse"
       id="clipPath60"><path
         d="m 0,566.93 566.93,0 L 566.93,0 0,0 0,566.93 Z"
         id="path62"
         inkscape:connector-curvature="0" /></clipPath></defs><sodipodi:namedview
     pagecolor="#ffffff"
     bordercolor="#666666"
     borderopacity="1"
     objecttolerance="10"
     gridtolerance="10"
     guidetolerance="10"
     inkscape:pageopacity="0"
     inkscape:pageshadow="2"
     inkscape:window-width="640"
     inkscape:window-height="480"
     id="namedview4"
     showgrid="false"
     fit-margin-top="0"
     fit-margin-left="0"
     fit-margin-right="0"
     fit-margin-bottom="0"
     inkscape:zoom="0.33302172"
     inkscape:cx="201.87036"
     inkscape:cy="197.93526"
     inkscape:window-x="0"
     inkscape:window-y="27"
     inkscape:window-maximized="0"
     inkscape:current-layer="g10" /><g
     id="g10"
     inkscape:groupmode="layer"
     inkscape:label="issuu"
     transform="matrix(1.25,0,0,-1.25,-152.46088,560.6675)"><g
       id="g12"><g
         id="g14"
         clip-path="url(#clipPath16)"><g
           id="g20"><g
             id="g22"><path
               d="m 221.17,339.97 c -0.291,-30.754 24.41,-55.925 55.166,-56.215 l 0,0 c 30.756,-0.29 55.928,24.41 56.219,55.162 l 0,0 c 0.288,30.757 -24.41,55.928 -55.167,56.218 l 0,0 c -0.178,0.002 -0.359,0.003 -0.537,0.003 l 0,0 c -30.513,0.001 -55.392,-24.591 -55.681,-55.168 m 55.426,-28.724 c -15.574,0.147 -28.082,12.893 -27.934,28.464 l 0,0 c 0.147,15.574 12.892,28.081 28.466,27.934 l 0,0 c 15.574,-0.147 28.082,-12.892 27.934,-28.466 l 0,0 c -0.147,-15.48 -12.747,-27.932 -28.195,-27.933 l 0,0 c -0.091,0 -0.18,0 -0.271,10e-4"
               style="fill:url(#linearGradient24);stroke:none"
               id="path32"
               inkscape:connector-curvature="0" /></g></g></g></g><g
       id="g34"><g
         id="g36"
         clip-path="url(#clipPath38)"><g
           id="g42"><g
             id="g44"><path
               d="m 166.588,448.534 0,-109.489 c 0,-60.466 49.016,-109.483 109.482,-109.483 l 0,0 c 60.466,0 109.484,49.017 109.484,109.483 l 0,0 c 0,60.466 -49.018,109.484 -109.484,109.484 l 0,0 c -0.174,0 -0.347,-0.007 -0.521,-0.007 l 0,0 0,0.012 -108.961,0 z m 109.561,-184.7 c -41.979,0.397 -75.691,34.752 -75.295,76.725 l 0,0 c 0.396,41.978 34.752,75.69 76.729,75.294 l 0,0 c 41.978,-0.397 75.69,-34.752 75.295,-76.729 l 0,0 c -0.394,-41.727 -34.355,-75.291 -75.997,-75.293 l 0,0 c -0.246,0 -0.486,10e-4 -0.732,0.003"
               style="fill:url(#linearGradient46);stroke:none"
               id="path54"
               inkscape:connector-curvature="0" /></g></g></g></g><g
       id="g56"><g
         id="g58"
         clip-path="url(#clipPath60)"><g
           id="g64"
           transform="translate(130.0977,125.708)"><path
             d="m 0,0 c -4.139,0 -6.945,3.105 -6.945,6.947 l 0,52.619 c 0,3.84 2.955,6.946 6.945,6.946 3.993,0 6.947,-3.106 6.947,-6.946 l 0,-52.619 C 6.947,3.105 4.139,0 0,0 m 0,92.82 c 4.436,0 8.129,-3.697 8.129,-8.129 0,-4.433 -3.693,-8.129 -8.129,-8.129 -4.433,0 -8.129,3.696 -8.129,8.129 0,4.432 3.696,8.129 8.129,8.129"
             style="fill:#1d1d1b;fill-opacity:1;fill-rule:nonzero;stroke:none"
             id="path66"
             inkscape:connector-curvature="0" /></g><g
           id="g68"
           transform="translate(180.2026,125.1172)"><path
             d="m 0,0 c -9.312,0 -17.588,2.955 -23.5,7.538 -2.068,1.625 -2.957,3.843 -2.957,5.765 0,2.956 2.366,4.88 5.322,4.88 2.363,0 3.843,-0.89 5.468,-2.073 3.991,-2.956 9.608,-5.761 16.703,-5.761 7.982,0 12.266,2.954 12.266,7.535 0,5.024 -4.138,6.946 -14.485,9.758 -18.179,4.875 -24.829,11.085 -24.829,21.725 0,11.085 10.198,18.326 26.159,18.326 6.061,0 12.859,-1.475 18.329,-4.137 3.99,-1.921 6.798,-4.285 6.798,-7.243 0,-2.659 -1.478,-5.175 -5.32,-5.175 -1.922,0 -3.844,0.888 -6.06,2.075 -4.14,2.214 -8.721,3.392 -14.04,3.392 -7.392,0 -12.417,-1.919 -12.417,-7.089 0,-5.03 4.434,-6.652 15.076,-9.756 C 18.476,35.179 26.754,30.891 26.754,18.919 26.754,7.979 17.59,0 0,0"
             style="fill:#1d1d1b;fill-opacity:1;fill-rule:nonzero;stroke:none"
             id="path70"
             inkscape:connector-curvature="0" /></g><g
           id="g72"
           transform="translate(247.1104,125.1172)"><path
             d="m 0,0 c -9.312,0 -17.59,2.955 -23.502,7.538 -2.069,1.625 -2.955,3.843 -2.955,5.765 0,2.956 2.364,4.88 5.32,4.88 2.364,0 3.843,-0.89 5.469,-2.073 3.99,-2.956 9.606,-5.761 16.7,-5.761 7.984,0 12.268,2.954 12.268,7.535 0,5.024 -4.138,6.946 -14.484,9.758 -18.178,4.875 -24.831,11.085 -24.831,21.725 0,11.085 10.2,18.326 26.162,18.326 6.061,0 12.858,-1.475 18.327,-4.137 3.99,-1.921 6.799,-4.285 6.799,-7.243 0,-2.659 -1.477,-5.175 -5.321,-5.175 -1.922,0 -3.843,0.888 -6.058,2.075 -4.14,2.214 -8.722,3.392 -14.042,3.392 -7.392,0 -12.415,-1.919 -12.415,-7.089 0,-5.03 4.432,-6.652 15.075,-9.756 C 18.474,35.179 26.753,30.891 26.753,18.919 26.753,7.979 17.587,0 0,0"
             style="fill:#1d1d1b;fill-opacity:1;fill-rule:nonzero;stroke:none"
             id="path74"
             inkscape:connector-curvature="0" /></g><g
           id="g76"
           transform="translate(287.2803,156.0078)"><path
             d="m 0,0 0,29.267 c 0,3.839 3.104,6.945 6.945,6.945 3.847,0 6.951,-3.106 6.951,-6.945 l 0,-30.89 c 0,-9.315 7.237,-16.557 16.997,-16.557 9.754,0 17.143,7.242 17.143,16.557 l 0,30.89 c 0,3.839 3.106,6.945 6.946,6.945 3.842,0 6.946,-3.106 6.946,-6.945 L 61.928,0 c 0,-17.295 -13.155,-30.891 -31.035,-30.891 C 13.007,-30.891 0,-17.295 0,0"
             style="fill:#1d1d1b;fill-opacity:1;fill-rule:nonzero;stroke:none"
             id="path78"
             inkscape:connector-curvature="0" /></g><g
           id="g80"
           transform="translate(364.5938,156.0078)"><path
             d="m 0,0 0,29.267 c 0,3.839 3.102,6.945 6.947,6.945 3.84,0 6.947,-3.106 6.947,-6.945 l 0,-30.89 c 0,-9.315 7.241,-16.557 16.997,-16.557 9.753,0 17.144,7.242 17.144,16.557 l 0,30.89 c 0,3.839 3.105,6.945 6.946,6.945 3.846,0 6.946,-3.106 6.946,-6.945 L 61.927,0 c 0,-17.295 -13.151,-30.891 -31.036,-30.891 C 13.007,-30.891 0,-17.295 0,0"
             style="fill:#1d1d1b;fill-opacity:1;fill-rule:nonzero;stroke:none"
             id="path82"
             inkscape:connector-curvature="0" /></g><g
           id="g84"
           transform="translate(432.2441,190.9658)"><path
             d="m 0,0 5.523,0 0,-1.032 -2.169,0 0,-5.792 -1.195,0 0,5.792 L 0,-1.032 0,0 Z"
             style="fill:#1d1d1b;fill-opacity:1;fill-rule:nonzero;stroke:none"
             id="path86"
             inkscape:connector-curvature="0" /></g><g
           id="g88"
           transform="translate(439.501,190.9658)"><path
             d="m 0,0 1.683,0 1.882,-5.343 0.019,0 1.835,5.343 1.663,0 0,-6.824 -1.137,0 0,5.265 -0.019,0 -1.893,-5.265 -0.985,0 -1.891,5.265 -0.02,0 0,-5.265 L 0,-6.824 0,0 Z"
             style="fill:#1d1d1b;fill-opacity:1;fill-rule:nonzero;stroke:none"
             id="path90"
             inkscape:connector-curvature="0" /></g></g></g></g></svg>